<svg width="140" height="70" viewBox="0 0 140 70" fill="none" xmlns="http://www.w3.org/2000/svg">
<g clip-path="url(#clip0)">
<path d="M62.2484 56.9283C62.8969 58.4831 65.7182 65.6139 64.5223 69.2022C64.3903 69.5975 64.0576 69.8928 63.649 69.9762C63.2403 70.06 62.8184 69.919 62.5422 69.6071C62.2655 69.2951 62.1763 68.8593 62.3083 68.464C63.055 66.2244 61.2939 60.6266 60.0088 57.6237C59.9469 57.479 59.9148 57.3225 59.9148 57.1649C59.9148 51.7397 59.9148 51.7397 55.5028 46.2242C53.5004 43.718 53.1441 40.4704 54.3817 36.873C52.8241 37.6523 51.2228 38.3408 49.5857 38.9348C49.3052 39.7611 49.3165 40.659 49.6183 41.4778C49.9035 42.0536 49.6695 42.7517 49.0948 43.0396C49.0804 43.0466 47.6761 43.7826 48.5131 46.2941C48.6451 46.6499 48.5943 47.0473 48.3785 47.3592C48.1622 47.6706 47.8075 47.857 47.4278 47.8586C47.2008 47.8581 46.9796 47.7876 46.7943 47.6562C46.7825 47.6498 45.6138 47.0494 41.7494 47.2209C41.7568 47.419 41.7542 47.6225 41.7494 47.8266C43.52 47.8202 45.2367 48.4339 46.6025 49.5609C47.009 49.9524 47.346 50.4107 47.5981 50.916C48.7081 50.4471 49.9366 50.3376 51.1122 50.602C53.1751 51.0891 54.9174 52.7283 56.2907 55.4759C56.5791 56.0523 56.3452 56.7531 55.7688 57.0415C55.1925 57.3299 54.4917 57.096 54.2033 56.5196C53.1601 54.4333 51.9482 53.2091 50.6005 52.879C49.7902 52.7027 48.9436 52.8133 48.206 53.1914C48.2167 53.3506 48.2466 53.4986 48.2466 53.6642C48.2466 54.3083 47.7237 54.8307 47.0795 54.8307C46.4353 54.8307 45.9124 54.3083 45.9124 53.6642C45.9712 52.7748 45.6443 51.9036 45.0156 51.2723C43.9548 50.4818 42.6499 50.0886 41.3295 50.1613C41.2697 50.3402 41.2008 50.5154 41.1223 50.6863C40.9359 51.0592 40.5646 51.3043 40.1485 51.3294C39.7319 51.3545 39.3345 51.1553 39.1048 50.8076C38.8746 50.4593 38.8485 50.0155 39.0349 49.6426C39.8088 48.0947 39.2512 45.548 38.9708 44.6971C38.8741 44.4044 38.8971 44.0849 39.0349 43.8083C39.8895 42.0985 41.2451 38.828 41.2451 37.3281C41.228 36.927 41.0277 36.5558 40.7014 36.3218C40.5235 36.1787 40.3104 36.0868 40.0844 36.0574C40.0802 36.0916 40.078 36.1269 40.0786 36.1616C40.0401 37.0899 39.8334 38.0038 39.4681 38.8584C39.4558 38.8851 39.4499 38.9145 39.436 38.9396C39.3351 39.1917 39.2357 39.4412 39.1187 39.6901C39.1096 39.7173 39.092 39.7387 39.0808 39.7654C38.357 41.2962 37.4068 42.7101 36.2616 43.9578C35.9 44.5053 36.04 47.3544 36.5554 49.9353C36.5586 49.953 36.5522 49.969 36.5554 49.9866C36.5581 50.0043 36.5688 50.0176 36.5709 50.0347C37.6023 59.3169 44.4606 59.4953 44.7459 59.4985C45.2228 59.4985 45.6518 59.7886 45.8296 60.2314C47.8839 65.3687 54.2108 66.5043 54.2749 66.516C54.9009 66.6319 55.318 67.2286 55.2123 67.8562C55.107 68.4843 54.5179 68.9116 53.8887 68.8171C53.3369 68.7129 52.7921 68.5746 52.2574 68.4031C52.3103 68.7551 52.2345 69.1146 52.0438 69.4153C51.7933 69.7657 51.3953 69.9815 50.9648 69.9997C50.5749 70.0002 50.2106 69.8052 49.9943 69.4805C49.7774 69.1563 49.7379 68.745 49.8875 68.3844C49.7732 67.9972 49.6343 67.6169 49.4724 67.2467C47.0854 66.0652 45.1475 64.1396 43.9521 61.7595C40.4589 61.2617 37.4319 59.0814 35.8525 55.9257C32.7833 55.6202 29.7906 54.7821 27.0088 53.4494C26.2295 53.1273 25.4454 52.8127 24.6564 52.5126C24.5363 52.5152 24.422 52.519 24.2911 52.519C21.6263 52.519 16.9424 51.9763 14.7568 49.8285C12.4359 47.7246 10.4206 45.306 8.77015 42.6433C8.11316 41.824 7.88242 40.7418 8.14895 39.7259C8.28836 39.3167 8.52872 38.9492 8.84706 38.6571C6.32754 35.6835 4.98472 31.8901 5.07339 27.9936C5.07339 18.4432 5.07339 10.8996 16.2678 5.92463L18.5443 4.90657C27.5456 0.869029 32.5051 -1.35565 41.5288 0.899475C47.745 2.45381 50.0867 4.68917 51.7959 6.32096C52.4839 7.08371 53.3188 7.7001 54.2498 8.13382C54.3176 8.15786 54.3838 8.18563 54.4479 8.21715C56.7655 8.9863 57.6292 11.6452 56.9055 15.5391C57.4295 15.9098 57.9214 16.3243 58.376 16.7778C59.2813 17.5426 59.8363 18.643 59.9148 19.8255C59.8892 20.5087 59.7941 21.1871 59.6317 21.851C59.5831 22.0865 59.5324 22.3296 59.4864 22.5795C59.4843 22.5982 59.4816 22.6169 59.4784 22.6356C59.3817 23.1308 59.3321 23.6334 59.3315 24.1376C59.3465 25.1973 59.6397 26.6203 61.7816 28.2275C63.3034 29.3684 63.9203 30.5494 63.6164 31.7362C63.0561 33.9235 59.4229 34.7173 57.9818 34.9475C57.9113 34.9886 57.821 35.041 57.7179 35.1002C56.1636 37.8954 54.9137 41.7481 57.3253 44.7676C62.0935 50.7275 62.2452 51.0309 62.2484 56.9283ZM41.4374 44.8979C42.9325 44.7954 44.4339 44.8408 45.9194 45.0341C45.8403 43.757 46.3023 42.506 47.1922 41.5873C47.0523 40.9635 47.0159 40.3204 47.0859 39.6842C45.7484 39.9529 44.3933 40.1211 43.0307 40.1868C42.558 41.6397 41.9876 43.0589 41.3247 44.4353C41.3589 44.5657 41.3979 44.7248 41.4374 44.8979ZM35.8755 40.683C33.1311 40.98 30.5197 41.5361 29.2351 42.8212C28.6529 43.3756 27.9494 43.7858 27.1808 44.0198C27.9996 44.641 28.8793 45.1773 29.8071 45.6195C31.0495 46.1344 32.3907 46.3668 33.7341 46.3C33.6641 44.6431 33.8388 43.0845 34.586 42.3378C35.0646 41.8266 35.4967 41.2722 35.8755 40.6825V40.683ZM25.0496 50.1586C25.1254 50.1864 25.1997 50.22 25.275 50.2484C25.323 50.2638 25.3695 50.2825 25.4149 50.3039C26.2492 50.6196 27.0771 50.9529 27.8997 51.2931C30.1223 52.3283 32.4703 53.0697 34.8846 53.498C34.5893 52.4821 34.3825 51.4427 34.2661 50.3915C34.163 49.875 34.0551 49.2714 33.9622 48.6326C32.1819 48.7255 30.4038 48.4093 28.765 47.708C26.9185 46.8518 25.2584 45.6404 23.8798 44.1432C23.6865 43.9247 23.4819 43.7164 23.2666 43.5193C22.6321 42.9077 22.0734 42.2219 21.6044 41.4757C21.058 40.4795 20.0655 39.8065 18.9374 39.6671C18.6089 39.6377 18.2783 39.6938 17.9787 39.8306C18.0769 40.1238 18.3008 40.7081 18.7996 41.8015L18.8274 41.8624C18.8338 41.8784 18.8429 41.8918 18.8482 41.9078C19.0304 42.2961 19.2104 42.6909 19.392 43.0915C20.7268 46.0329 22.107 49.0759 25.0496 50.1586ZM10.7112 41.3486C12.2746 43.8772 14.1868 46.1718 16.3923 48.1647C17.6315 49.101 19.1014 49.6843 20.6461 49.8515C19.235 48.1001 18.0962 46.1456 17.2672 44.0545C17.1492 43.7944 17.029 43.5359 16.9104 43.2768C15.4901 42.8805 14.0912 42.4115 12.719 41.8731C12.1128 41.5478 11.5391 41.1659 11.005 40.7322C10.8421 40.6051 10.6695 40.4614 10.4933 40.3097C10.4399 40.3487 10.3955 40.3989 10.3645 40.4571C10.3341 40.549 10.3731 40.8406 10.7112 41.3486ZM53.9672 10.5492C52.9486 11.2473 52.5063 12.5298 52.8781 13.7075C53.0853 14.529 53.6275 14.7988 54.6664 14.8741C54.8961 13.4891 55.0835 11.1837 53.9672 10.5492ZM56.162 33.2997C56.1988 33.2788 56.2506 33.2505 56.2848 33.2313C56.7111 32.9909 56.9653 32.8366 56.9744 32.8312C57.0887 32.7666 57.2137 32.7223 57.3429 32.6993L56.4328 31.9536C55.9408 31.5434 55.8714 30.8133 56.2773 30.3176C56.6833 29.8224 57.4129 29.7466 57.9118 30.1483L60.1231 31.9611C60.8255 31.678 61.3004 31.3773 61.3548 31.1615C61.3548 31.1583 61.3132 30.793 60.3811 30.0938C59.1499 29.2327 58.1676 28.0619 57.5336 26.6999C56.4504 27.7884 55.7704 27.9936 55.2475 27.9936C54.0302 27.8776 52.9641 27.1283 52.4428 26.0221C51.9241 25.0537 51.3211 23.0277 53.1104 20.3442C53.6334 19.3448 54.6664 18.7161 55.795 18.7108C56.4098 18.761 56.9931 19.004 57.4615 19.4052C57.2756 19.0377 57.0257 18.706 56.7239 18.4256C56.2763 17.9833 55.787 17.5848 55.2635 17.2344C53.9106 17.2248 51.3125 17.0507 50.615 14.2743C50.1139 12.5554 50.5551 10.6998 51.7762 9.39064C51.2169 8.9644 50.6855 8.50291 50.1844 8.00937C48.5794 6.47586 46.5806 4.56846 40.962 3.16421C32.7214 1.10458 28.3035 3.08676 19.4994 7.03617L17.2154 8.0569C7.40703 12.4165 7.40703 18.6136 7.40703 27.9936C7.29914 31.7977 8.80006 35.4704 11.5413 38.1101L11.5445 38.1133C11.8633 38.4156 12.1699 38.68 12.4477 38.8974C12.8397 39.2099 13.2532 39.4946 13.6842 39.7494C13.7755 39.7857 14.565 40.0955 15.738 40.4801C15.6365 40.2189 15.5809 39.9422 15.5751 39.6623C15.6771 38.593 16.4697 37.7175 17.5236 37.5097C19.1522 37.0167 21.7053 37.4205 23.5497 40.1858C23.9145 40.7706 24.3472 41.3101 24.8386 41.7935C24.9374 41.8827 25.0277 41.9869 25.1254 42.0841C26.0244 42.0622 26.8897 41.7406 27.5851 41.1707C29.109 39.6468 31.5847 38.9247 34.3377 38.5278C31.7097 37.623 29.5865 35.6499 28.4931 33.0946C28.1823 32.3163 27.2353 29.948 28.5669 28.5448C30.1276 26.8996 33.3794 28.0069 36.2477 28.9838L36.9475 29.2205C39.7095 30.1435 42.7263 27.1961 42.7546 27.1688C43.2124 26.7266 43.9404 26.733 44.3901 27.1827C44.8404 27.633 44.8468 28.361 44.4045 28.8188C44.2406 28.9833 40.3467 32.8141 36.2093 31.4345L35.4967 31.1936C34.3329 30.7972 30.7905 29.5906 30.2601 30.1509C30.2574 30.1541 29.9989 30.5729 30.6612 32.2277C31.9196 35.3769 35.2382 36.5867 37.6157 37.0514C37.6931 36.7609 37.7364 36.4623 37.7449 36.1616C37.7161 35.496 37.9607 34.8471 38.4217 34.3663C38.8581 33.9422 39.4456 33.7104 40.054 33.7227C41.9908 33.8178 43.5275 35.3897 43.5788 37.3281C43.5788 37.4782 43.5542 37.6491 43.5398 37.8115C44.6332 37.7485 45.7201 37.5989 46.7905 37.365C47.2664 37.2432 47.753 37.099 48.253 36.9323C48.9308 36.708 49.6193 36.4425 50.2993 36.1632L48.816 34.9544C48.4928 34.6906 48.3347 34.275 48.4015 33.8632C48.4677 33.4519 48.7487 33.1068 49.1386 32.9589C49.528 32.8104 49.9676 32.8814 50.2907 33.1448L52.689 35.0997C53.1206 34.8935 53.5372 34.6895 53.9239 34.4929L52.8679 33.6394C52.3669 33.234 52.2889 32.499 52.6943 31.998C53.0998 31.4964 53.8347 31.419 54.3357 31.8238L56.162 33.2997ZM57.1181 22.6575C56.3868 21.3815 55.8228 21.0487 55.6743 21.0412C55.5675 21.038 55.3479 21.1961 55.0515 21.64C54.3037 22.4994 54.0665 23.6895 54.4271 24.77C54.5745 25.1407 54.8458 25.4489 55.1952 25.6418C55.9002 25.106 56.5161 24.4613 57.0176 23.7311C57.0321 23.3717 57.0657 23.0133 57.1181 22.6575Z" fill="black"/>
<path d="M43.3833 25.8116C42.9282 25.8138 42.4752 25.7427 42.0431 25.6001C38.1637 24.3064 37.7449 22.7633 37.7449 22.1597C37.8298 20.2133 38.9724 18.4694 40.7233 17.6153C41.3274 17.2206 41.8604 16.7254 42.2984 16.1523C43.2129 15.1113 44.2502 13.9308 45.7992 13.8806C47.0725 13.9239 48.2647 14.5141 49.0713 15.5001C50.7997 17.2494 50.9931 19.9981 49.5264 21.9723C48.2108 24.1606 45.9273 25.5884 43.3833 25.8116ZM47.4208 17.1506C47.0362 16.6699 46.4967 16.3387 45.8942 16.2132H45.8739C45.335 16.2308 44.6817 16.9738 44.0509 17.6922C43.4265 18.5036 42.651 19.1862 41.7664 19.7027C40.8648 20.1354 40.2383 20.9889 40.0962 21.9792C40.8563 22.6693 41.7803 23.1538 42.7807 23.3861C44.1407 23.8348 46.4065 22.579 47.5404 20.7453C48.4047 19.6856 48.3539 18.1505 47.4213 17.1501L47.4208 17.1506Z" fill="black"/>
<path d="M17.2432 12.7114C11.7357 15.3366 11.9253 25.3101 11.9275 25.4105C11.944 26.0541 11.4361 26.5898 10.7924 26.6069L10.7609 26.6075C10.129 26.6075 9.61197 26.1043 9.59541 25.4724C9.58206 25.0008 9.362 13.8833 16.2395 10.6047C16.6161 10.4215 17.0621 10.4546 17.4077 10.6913C17.7538 10.9279 17.9461 11.3317 17.9119 11.7494C17.8777 12.1665 17.6224 12.534 17.2432 12.7114Z" fill="black"/>
</g>
<path d="M82.2461 17.5117C82.4805 17.2852 82.6914 17.1719 82.8789 17.1719C83.0742 17.1719 83.1719 17.207 83.1719 17.2773C83.1719 17.3398 83.1367 17.3867 83.0664 17.418C83.0039 17.4492 82.9297 17.4922 82.8438 17.5469L82.5273 17.7578C82.3945 17.8516 82.2383 17.9922 82.0586 18.1797C81.6289 18.6406 81.3164 18.9883 81.1211 19.2227C80.5508 19.9336 80.0938 20.5234 79.75 20.9922L77.1367 24.5898C75.1523 27.3555 73.1016 29.7188 70.9844 31.6797L68.9336 33.4961L69.8359 32.9688C70.5078 32.5625 71.1328 32.125 71.7109 31.6562L73.375 30.2734L75.1562 28.6328L80.2188 23.7344C82.1641 21.9453 83.4688 20.7734 84.1328 20.2188C85.3828 19.1953 86.1758 18.5625 86.5117 18.3203C87.6523 17.4766 88.2852 17.0547 88.4102 17.0547C88.543 17.0547 88.6094 17.1094 88.6094 17.2188C88.6094 17.2891 88.5312 17.3633 88.375 17.4414L87.9414 17.6758C87.2461 18.0273 86.6523 18.5781 86.1602 19.3281C85.668 20.0781 85.207 20.8242 84.7773 21.5664L83.4297 23.875L81.9883 26.2422C81.4961 27.0234 81.1016 27.6172 80.8047 28.0234L77.9219 31.7734L80.6758 28.9258L83.207 26.4297L87.0039 22.8086C89.8242 20.1367 92.1406 18.4766 93.9531 17.8281C94.6094 17.5938 95.2812 17.4766 95.9688 17.4766C96.6562 17.4766 97.2305 17.6133 97.6914 17.8867C98.1523 18.1602 98.3828 18.5664 98.3828 19.1055C98.3828 19.7617 98.0859 20.3125 97.4922 20.7578C96.9375 21.1797 96.2461 21.3906 95.418 21.3906C94.957 21.3906 94.5625 21.3125 94.2344 21.1562C93.6406 20.8594 93.3438 20.5859 93.3438 20.3359C93.3438 20.0859 93.4414 19.9609 93.6367 19.9609C93.7461 19.9609 93.8164 19.9883 93.8477 20.043C93.8867 20.0898 93.918 20.1914 93.9414 20.3477C93.9727 20.4961 94.0469 20.6211 94.1641 20.7227C94.2812 20.8242 94.4141 20.9062 94.5625 20.9688C94.8359 21.0938 95.1016 21.1562 95.3594 21.1562C95.6172 21.1562 95.8828 21.1133 96.1562 21.0273C96.4375 20.9414 96.6953 20.8125 96.9297 20.6406C97.4766 20.25 97.75 19.7461 97.75 19.1289C97.75 18.6758 97.5391 18.3359 97.1172 18.1094C96.7734 17.9297 96.3672 17.8398 95.8984 17.8398C95.4375 17.8398 95.0273 17.8789 94.668 17.957C94.3086 18.0352 93.9141 18.1719 93.4844 18.3672C93.0625 18.5547 92.6016 18.8047 92.1016 19.1172C91.6016 19.4297 91.0469 19.8203 90.4375 20.2891C89.1797 21.2422 87.9922 22.2617 86.875 23.3477L82.6797 27.4141L80.6641 29.4062L78.168 31.9961C77.0117 33.1992 75.9766 33.9883 75.0625 34.3633C74.8359 34.457 74.6758 34.5039 74.582 34.5039C74.4336 34.5039 74.3594 34.4414 74.3594 34.3164C74.3594 34.2227 74.4648 34.1406 74.6758 34.0703C74.8867 34 75.0625 33.9336 75.2031 33.8711C75.3516 33.8008 75.4922 33.7148 75.625 33.6133C75.7578 33.5117 75.8906 33.3789 76.0234 33.2148C76.1641 33.0508 76.3164 32.8438 76.4805 32.5938C76.6445 32.3359 76.8359 32.0195 77.0547 31.6445C78.2344 29.582 79.0273 28.2266 79.4336 27.5781C80.3555 26.1641 80.9375 25.2891 81.1797 24.9531L85.5391 19.5156L84.1211 20.5938C83.6055 20.9922 83.1172 21.4141 82.6562 21.8594L77.0781 27.3086L74.1719 30.0039C72.0625 31.9102 70.2578 33.207 68.7578 33.8945L68.3125 34.0938C67.7422 34.3672 67.3672 34.5039 67.1875 34.5039C67.0078 34.5039 66.918 34.4453 66.918 34.3281C66.918 34.2344 67.0938 34.1367 67.4453 34.0352C67.8438 33.9883 68.2031 33.8125 68.5234 33.5078C69.0781 32.9844 69.6562 32.2852 70.2578 31.4102L72.4844 28.2109L73.4453 26.9336C74.4297 25.6758 75.1445 24.793 75.5898 24.2852C76.6523 23.1055 77.4727 22.2266 78.0508 21.6484C80.6211 19.1094 82.0195 17.7305 82.2461 17.5117ZM63.3555 23.6758C63.2461 23.6758 63.1914 23.6133 63.1914 23.4883C63.1914 23.0664 63.4141 22.5078 63.8594 21.8125C64.3359 21.0781 65 20.4219 65.8516 19.8438C67.2266 18.9062 68.6602 18.4375 70.1523 18.4375C71.2148 18.4375 72.4336 18.6758 73.8086 19.1523L74.7812 19.4922C75.5625 19.7578 76.1719 19.8906 76.6094 19.8906C77.0469 19.8906 77.4062 19.8633 77.6875 19.8086C77.9688 19.7461 78.2656 19.6562 78.5781 19.5391C79.2812 19.2812 79.832 18.9883 80.2305 18.6602C80.6289 18.3242 80.8555 18.1562 80.9102 18.1562C80.9648 18.1562 80.9922 18.1797 80.9922 18.2266C80.9922 18.2969 80.8516 18.457 80.5703 18.707C80.2891 18.957 79.9414 19.2148 79.5273 19.4805C79.1211 19.7461 78.7148 19.9609 78.3086 20.125C77.5664 20.4141 76.8984 20.5586 76.3047 20.5586C75.7188 20.5586 75.2773 20.543 74.9805 20.5117C74.6914 20.4805 74.3984 20.4375 74.1016 20.3828C73.6094 20.2812 73.0859 20.1406 72.5312 19.9609C71.9844 19.7812 71.6016 19.6641 71.3828 19.6094C71.1719 19.5469 70.9688 19.5 70.7734 19.4688C70.3906 19.3984 69.9727 19.3633 69.5195 19.3633C69.0586 19.3633 68.5859 19.4219 68.1016 19.5391C67.6094 19.6484 67.1328 19.8086 66.6719 20.0195C65.3203 20.6445 64.3711 21.4922 63.8242 22.5625C63.6758 22.8594 63.6016 23.0938 63.6016 23.2656C63.6016 23.5391 63.5195 23.6758 63.3555 23.6758ZM90.7773 23.4062C90.668 23.5078 90.543 23.5898 90.4023 23.6523C90.2617 23.707 90.1016 23.7344 89.9219 23.7344C89.7422 23.7344 89.5859 23.668 89.4531 23.5352C89.3281 23.3945 89.2656 23.2383 89.2656 23.0664C89.2656 22.8945 89.2969 22.7422 89.3594 22.6094C89.4219 22.4766 89.5078 22.3594 89.6172 22.2578C89.8438 22.0234 90.0898 21.9062 90.3555 21.9062C90.6289 21.9062 90.8281 21.9805 90.9531 22.1289C91.0859 22.2695 91.1523 22.4258 91.1523 22.5977C91.1523 22.7695 91.1172 22.9219 91.0469 23.0547C90.9844 23.1875 90.8945 23.3047 90.7773 23.4062ZM83.3359 33.332C83.3359 33.5742 83.5664 33.6953 84.0273 33.6953C84.4883 33.6953 84.9219 33.5898 85.3281 33.3789C85.7422 33.168 86.1562 32.9062 86.5703 32.5938C86.9922 32.2734 87.3984 31.9258 87.7891 31.5508L88.8438 30.4961C89.1562 30.168 89.4141 29.8867 89.6172 29.6523C89.8203 29.4102 89.9414 29.2695 89.9805 29.2305L90.2148 29.4414C90.1367 29.5195 89.9883 29.6875 89.7695 29.9453C89.5586 30.1953 89.293 30.4922 88.9727 30.8359C88.6523 31.1719 88.293 31.5273 87.8945 31.9023C87.4961 32.2773 87.0781 32.6211 86.6406 32.9336C85.6328 33.6602 84.75 34.0234 83.9922 34.0234C83.5078 34.0234 83.1211 33.9375 82.832 33.7656C82.543 33.5859 82.3984 33.3828 82.3984 33.1562C82.3984 32.9297 82.4219 32.7266 82.4688 32.5469C82.5156 32.3672 82.6016 32.1523 82.7266 31.9023C82.8516 31.6523 83.0273 31.3594 83.2539 31.0234C83.4727 30.6875 83.7617 30.2852 84.1211 29.8164C84.4727 29.3477 84.9023 28.8047 85.4102 28.1875L87.2148 26.0547C87.3086 26.0781 87.5 26.0898 87.7891 26.0898H88.3398C88.543 26.0898 88.707 26.082 88.832 26.0664C86.2461 29.1523 84.793 30.9102 84.4727 31.3398C84.1445 31.7617 83.9023 32.0938 83.7461 32.3359C83.4727 32.75 83.3359 33.082 83.3359 33.332ZM88.7617 33.3086C88.7617 33.5664 88.9492 33.6953 89.3242 33.6953C89.6992 33.6953 90.0977 33.5977 90.5195 33.4023C90.9492 33.1992 91.3711 32.9453 91.7852 32.6406C92.207 32.3359 92.6133 32.0039 93.0039 31.6445C93.3945 31.2773 93.75 30.9297 94.0703 30.6016L94.8789 29.7344C95.0977 29.4844 95.2461 29.3203 95.3242 29.2422L95.5586 29.4414C95.4727 29.5273 95.3125 29.6992 95.0781 29.957C94.8516 30.2148 94.5703 30.5117 94.2344 30.8477C93.9062 31.1836 93.5352 31.5391 93.1211 31.9141C92.7148 32.2891 92.2891 32.6328 91.8438 32.9453C90.8047 33.6641 89.8945 34.0234 89.1133 34.0234C88.7852 34.0234 88.5156 33.9336 88.3047 33.7539C88.0859 33.5742 87.9766 33.3828 87.9766 33.1797C87.9766 32.9688 87.9883 32.8008 88.0117 32.6758C88.0273 32.5508 88.0664 32.4102 88.1289 32.2539C88.1914 32.0898 88.2812 31.9023 88.3984 31.6914C88.5156 31.4727 88.6719 31.2109 88.8672 30.9062L90.6602 28.2578L99.7188 15.3086C100.281 15.3867 100.824 15.3867 101.348 15.3086C93.8945 25.668 90.0352 31.0469 89.7695 31.4453C89.5039 31.8359 89.3086 32.1328 89.1836 32.3359C89.0586 32.5312 88.9648 32.6914 88.9023 32.8164C88.8086 33.0039 88.7617 33.168 88.7617 33.3086ZM94.1055 33.3086C94.1055 33.5664 94.293 33.6953 94.668 33.6953C95.043 33.6953 95.4414 33.5977 95.8633 33.4023C96.293 33.1992 96.7148 32.9453 97.1289 32.6406C97.5508 32.3359 97.957 32.0039 98.3477 31.6445C98.7383 31.2773 99.0938 30.9297 99.4141 30.6016L100.223 29.7344C100.441 29.4844 100.59 29.3203 100.668 29.2422L100.902 29.4414C100.816 29.5273 100.656 29.6992 100.422 29.957C100.195 30.2148 99.9141 30.5117 99.5781 30.8477C99.25 31.1836 98.8789 31.5391 98.4648 31.9141C98.0586 32.2891 97.6328 32.6328 97.1875 32.9453C96.1484 33.6641 95.2383 34.0234 94.457 34.0234C94.1289 34.0234 93.8594 33.9336 93.6484 33.7539C93.4297 33.5742 93.3203 33.3828 93.3203 33.1797C93.3203 32.9688 93.332 32.8008 93.3555 32.6758C93.3711 32.5508 93.4102 32.4102 93.4727 32.2539C93.5352 32.0898 93.625 31.9023 93.7422 31.6914C93.8594 31.4727 94.0156 31.2109 94.2109 30.9062L96.0039 28.2578L105.062 15.3086C105.625 15.3867 106.168 15.3867 106.691 15.3086C99.2383 25.668 95.3789 31.0469 95.1133 31.4453C94.8477 31.8359 94.6523 32.1328 94.5273 32.3359C94.4023 32.5312 94.3086 32.6914 94.2461 32.8164C94.1523 33.0039 94.1055 33.168 94.1055 33.3086ZM106.785 23.4062C106.676 23.5078 106.551 23.5898 106.41 23.6523C106.27 23.707 106.109 23.7344 105.93 23.7344C105.75 23.7344 105.594 23.668 105.461 23.5352C105.336 23.3945 105.273 23.2383 105.273 23.0664C105.273 22.8945 105.305 22.7422 105.367 22.6094C105.43 22.4766 105.516 22.3594 105.625 22.2578C105.852 22.0234 106.098 21.9062 106.363 21.9062C106.637 21.9062 106.836 21.9805 106.961 22.1289C107.094 22.2695 107.16 22.4258 107.16 22.5977C107.16 22.7695 107.125 22.9219 107.055 23.0547C106.992 23.1875 106.902 23.3047 106.785 23.4062ZM99.3438 33.332C99.3438 33.5742 99.5742 33.6953 100.035 33.6953C100.496 33.6953 100.93 33.5898 101.336 33.3789C101.75 33.168 102.164 32.9062 102.578 32.5938C103 32.2734 103.406 31.9258 103.797 31.5508L104.852 30.4961C105.164 30.168 105.422 29.8867 105.625 29.6523C105.828 29.4102 105.949 29.2695 105.988 29.2305L106.223 29.4414C106.145 29.5195 105.996 29.6875 105.777 29.9453C105.566 30.1953 105.301 30.4922 104.98 30.8359C104.66 31.1719 104.301 31.5273 103.902 31.9023C103.504 32.2773 103.086 32.6211 102.648 32.9336C101.641 33.6602 100.758 34.0234 100 34.0234C99.5156 34.0234 99.1289 33.9375 98.8398 33.7656C98.5508 33.5859 98.4062 33.3828 98.4062 33.1562C98.4062 32.9297 98.4297 32.7266 98.4766 32.5469C98.5234 32.3672 98.6094 32.1523 98.7344 31.9023C98.8594 31.6523 99.0352 31.3594 99.2617 31.0234C99.4805 30.6875 99.7695 30.2852 100.129 29.8164C100.48 29.3477 100.91 28.8047 101.418 28.1875L103.223 26.0547C103.316 26.0781 103.508 26.0898 103.797 26.0898H104.348C104.551 26.0898 104.715 26.082 104.84 26.0664C102.254 29.1523 100.801 30.9102 100.48 31.3398C100.152 31.7617 99.9102 32.0938 99.7539 32.3359C99.4805 32.75 99.3438 33.082 99.3438 33.332ZM110.582 34.0234C109.801 34.0234 109.41 33.7812 109.41 33.2969C109.41 32.8984 109.637 32.3984 110.09 31.7969L110.828 30.8594L110.711 30.8125C109.398 32.4297 108.16 33.4453 106.996 33.8594C106.676 33.9688 106.398 34.0234 106.164 34.0234C105.203 34.0234 104.723 33.5117 104.723 32.4883C104.723 31.2852 105.203 30.1367 106.164 29.043C107.586 27.3867 109.016 26.4062 110.453 26.1016C110.883 26.0156 111.25 25.9727 111.555 25.9727C111.859 25.9727 112.098 25.9961 112.27 26.043C112.449 26.082 112.605 26.1406 112.738 26.2188C113.02 26.3984 113.16 26.6211 113.16 26.8867C113.16 27.1445 113.113 27.3906 113.02 27.625L114.168 26.207C114.379 26.2695 114.574 26.3008 114.754 26.3008C115.215 26.3008 115.547 26.2852 115.75 26.2539L111.801 31.0117C110.863 32.1055 110.395 32.875 110.395 33.3203C110.395 33.5703 110.543 33.6953 110.84 33.6953C111.137 33.6953 111.477 33.6055 111.859 33.4258C112.25 33.2461 112.637 33.0156 113.02 32.7344C113.402 32.4531 113.773 32.1406 114.133 31.7969C114.5 31.4531 114.836 31.1172 115.141 30.7891C115.453 30.4609 115.727 30.1562 115.961 29.875L116.523 29.2422L116.77 29.4414L116.172 30.1211C113.922 32.7227 112.059 34.0234 110.582 34.0234ZM107.336 29.8047C106.234 31.1406 105.684 32.2344 105.684 33.0859C105.684 33.4766 105.859 33.6719 106.211 33.6719C107.352 33.6719 108.996 32.4102 111.145 29.8867L112.129 28.7031C112.598 27.9922 112.832 27.4766 112.832 27.1562C112.832 26.6094 112.559 26.3359 112.012 26.3359C111.27 26.3359 110.203 26.9688 108.812 28.2344C108.336 28.6719 107.844 29.1953 107.336 29.8047ZM116.863 33.7773C116.684 33.7383 116.457 33.7188 116.184 33.7188C115.707 33.7188 115.34 33.7578 115.082 33.8359L119.148 28.0234C119.656 27.3125 119.918 26.8906 119.934 26.7578C119.965 26.5 119.883 26.3711 119.688 26.3711C119.398 26.3711 118.68 27.0859 117.531 28.5156L116.781 29.4414C116.719 29.4727 116.652 29.457 116.582 29.3945C116.52 29.3242 116.504 29.2734 116.535 29.2422C116.762 29 117.016 28.6953 117.297 28.3281C117.586 27.9531 117.887 27.5938 118.199 27.25C118.965 26.3984 119.602 25.9727 120.109 25.9727C120.969 25.9727 121.242 26.4141 120.93 27.2969C120.867 27.4844 120.73 27.7266 120.52 28.0234L118.059 31.4453L118.117 31.5742C120.219 29.1445 121.762 27.5742 122.746 26.8633C123.527 26.2695 124.25 25.9727 124.914 25.9727C125.367 25.9727 125.727 26.0977 125.992 26.3477C126.203 26.5586 126.301 26.7812 126.285 27.0156C126.277 27.25 126.262 27.4297 126.238 27.5547C126.223 27.6719 126.195 27.793 126.156 27.918C126.062 28.1758 125.898 28.4883 125.664 28.8555C127.336 27.1523 128.602 26.2109 129.461 26.0312C129.633 25.9922 129.82 25.9727 130.023 25.9727C130.234 25.9727 130.426 26.0078 130.598 26.0781C130.777 26.1484 130.922 26.2383 131.031 26.3477C131.234 26.5508 131.332 26.7969 131.324 27.0859C131.324 27.3672 131.27 27.6562 131.16 27.9531C131.059 28.25 130.883 28.6016 130.633 29.0078C130.109 29.8438 129.227 30.9336 127.984 32.2773C127.469 32.8164 127.199 33.1328 127.176 33.2266C127.152 33.3125 127.141 33.3789 127.141 33.4258L127.059 33.4375C127.059 33.625 127.281 33.7188 127.727 33.7188C128.172 33.7188 128.578 33.6211 128.945 33.4258C129.32 33.2227 129.699 32.9688 130.082 32.6641C130.465 32.3516 130.836 32.0117 131.195 31.6445C131.562 31.2773 131.895 30.9297 132.191 30.6016L132.941 29.7344C133.145 29.4844 133.281 29.3203 133.352 29.2422L133.598 29.4414C133.52 29.5195 133.371 29.6914 133.152 29.957C132.941 30.2148 132.68 30.5156 132.367 30.8594C132.062 31.2031 131.719 31.5625 131.336 31.9375C130.953 32.3125 130.559 32.6562 130.152 32.9688C129.207 33.6953 128.414 34.0586 127.773 34.0586C127.094 34.0586 126.613 33.8789 126.332 33.5195C126.246 33.4102 126.203 33.2812 126.203 33.1328C126.203 32.9844 126.227 32.8125 126.273 32.6172C126.328 32.4219 126.445 32.1758 126.625 31.8789C126.984 31.2695 127.508 30.5781 128.195 29.8047C128.883 29.0312 129.328 28.5117 129.531 28.2461C129.742 27.9805 129.914 27.75 130.047 27.5547C130.289 27.1719 130.41 26.8828 130.41 26.6875C130.41 26.4062 130.211 26.2656 129.812 26.2656C129.031 26.2656 127.68 27.2422 125.758 29.1953C124.938 30.0234 124.023 31.0742 123.016 32.3477L121.926 33.7773C121.746 33.7383 121.52 33.7188 121.246 33.7188C120.801 33.7188 120.434 33.7578 120.145 33.8359C121.301 32.4219 121.938 31.6406 122.055 31.4922C123.812 29.1719 124.785 27.8594 124.973 27.5547C125.23 27.1094 125.359 26.8008 125.359 26.6289C125.359 26.3867 125.168 26.2656 124.785 26.2656C124.277 26.2656 123.684 26.5391 123.004 27.0859C121.574 28.2266 119.891 29.9805 117.953 32.3477L116.863 33.7773ZM70.1846 49.8105C70.1846 49.9108 70.1458 49.9951 70.0684 50.0635C69.9909 50.1318 69.8929 50.166 69.7744 50.166C69.6559 50.166 69.5579 50.1432 69.4805 50.0977V50.1318C69.4805 50.3278 69.5944 50.4987 69.8223 50.6445C70.0501 50.7812 70.3281 50.8496 70.6562 50.8496C70.9889 50.8496 71.2943 50.7926 71.5723 50.6787C71.8548 50.5648 72.1191 50.4098 72.3652 50.2139C72.6113 50.0133 72.8438 49.7786 73.0625 49.5098C73.2858 49.2409 73.5 48.9538 73.7051 48.6484C73.9102 48.3431 74.1107 48.0241 74.3066 47.6914L75.0518 46.4883C73.9443 46.4518 73.0488 46.2331 72.3652 45.832C71.6497 45.4128 71.3148 44.8841 71.3604 44.2461C71.3831 43.8405 71.5312 43.4668 71.8047 43.125C72.0781 42.7786 72.4336 42.4779 72.8711 42.2227C73.8053 41.6895 74.9105 41.4229 76.1865 41.4229C76.7106 41.4229 77.098 41.4844 77.3486 41.6074C77.417 41.6439 77.4512 41.6758 77.4512 41.7031C77.4512 41.7259 77.4284 41.7373 77.3828 41.7373C77.3418 41.7373 77.3053 41.735 77.2734 41.7305C77.2461 41.7214 77.1868 41.7077 77.0957 41.6895C76.7812 41.6165 76.4622 41.5801 76.1387 41.5801C75.8151 41.5801 75.4779 41.612 75.127 41.6758C74.7806 41.735 74.4479 41.8216 74.1289 41.9355C73.8099 42.0495 73.5114 42.1885 73.2334 42.3525C72.96 42.5166 72.7207 42.7012 72.5156 42.9062C72.0781 43.3529 71.8457 43.8428 71.8184 44.376C71.7865 44.8408 72.0462 45.2578 72.5977 45.627C73.2311 46.0553 74.0856 46.2855 75.1611 46.3174C76.7425 43.82 78.1895 42.2819 79.502 41.7031C79.9303 41.5163 80.3154 41.4229 80.6572 41.4229C81.3317 41.4229 81.6553 41.7054 81.6279 42.2705C81.6006 42.7536 81.3385 43.2936 80.8418 43.8906C80.0169 44.8796 78.9414 45.6133 77.6152 46.0918C77.1549 46.2604 76.6787 46.3766 76.1865 46.4404L75.4004 47.6094C74.1745 49.3867 72.9941 50.4645 71.8594 50.8428C71.5176 50.9567 71.1895 51.0137 70.875 51.0137C70.5605 51.0137 70.3053 50.9909 70.1094 50.9453C69.918 50.8952 69.7539 50.8268 69.6172 50.7402C69.3438 50.5625 69.207 50.3415 69.207 50.0771C69.207 49.7946 69.3483 49.6146 69.6309 49.5371C69.7038 49.5189 69.7767 49.5098 69.8496 49.5098C69.9225 49.5098 69.9954 49.5348 70.0684 49.585C70.1458 49.6351 70.1846 49.7103 70.1846 49.8105ZM76.3164 46.249C77.5924 46.0348 78.7363 45.4834 79.748 44.5947C80.3542 44.0615 80.7871 43.526 81.0469 42.9883C81.334 42.3913 81.3568 41.972 81.1152 41.7305C81.0241 41.6393 80.8691 41.596 80.6504 41.6006C80.4362 41.6051 80.181 41.694 79.8848 41.8672C79.5885 42.0404 79.2786 42.291 78.9551 42.6191C78.3398 43.2344 77.6221 44.1937 76.8018 45.4971C76.5374 45.9027 76.3757 46.1533 76.3164 46.249ZM77.1641 50.8701C77.041 50.8473 76.9043 50.8359 76.7539 50.8359C76.4941 50.8359 76.2799 50.8587 76.1113 50.9043L83.6787 40.0967C83.984 40.1423 84.3008 40.1423 84.6289 40.0967L77.8477 49.5098L77.8818 49.585C78.2282 49.1839 78.5495 48.8285 78.8457 48.5186L79.6592 47.6982C80.124 47.2471 80.5 46.9281 80.7871 46.7412C81.2201 46.4587 81.6302 46.3174 82.0176 46.3174C82.4232 46.3174 82.6784 46.4632 82.7832 46.7549C82.9883 47.32 82.348 48.4001 80.8623 49.9951L80.5957 50.2891C80.4499 50.4531 80.377 50.5785 80.377 50.665C80.377 50.7106 80.4271 50.7493 80.5273 50.7812C80.6276 50.8086 80.7689 50.8223 80.9512 50.8223C81.1335 50.8223 81.3477 50.7653 81.5938 50.6514C81.8398 50.5329 82.0791 50.3848 82.3115 50.207C82.5439 50.0293 82.765 49.8333 82.9746 49.6191C83.1842 49.4049 83.3711 49.2021 83.5352 49.0107C83.7038 48.8193 83.8451 48.6507 83.959 48.5049C84.0729 48.359 84.1504 48.2656 84.1914 48.2246L84.3418 48.3408C84.2962 48.391 84.2119 48.4912 84.0889 48.6416C83.9704 48.792 83.8223 48.9674 83.6445 49.168C83.4714 49.3639 83.2731 49.5713 83.0498 49.79C82.8311 50.0088 82.5964 50.207 82.3457 50.3848C81.7715 50.804 81.2497 51.0137 80.7803 51.0137C80.4066 51.0137 80.1309 50.9111 79.9531 50.7061C79.8984 50.6423 79.8711 50.5671 79.8711 50.4805C79.8711 50.3939 79.8825 50.2959 79.9053 50.1865C79.9326 50.0726 79.9964 49.929 80.0967 49.7559C80.3291 49.3639 80.6367 48.9538 81.0195 48.5254C81.4023 48.0924 81.6553 47.7985 81.7783 47.6436C81.9014 47.4886 81.9993 47.3542 82.0723 47.2402C82.209 47.0215 82.2773 46.8529 82.2773 46.7344C82.2773 46.5703 82.1702 46.4883 81.9561 46.4883C81.6689 46.4883 81.3385 46.6159 80.9648 46.8711C80.0579 47.4772 79.0007 48.5322 77.793 50.0361L77.1641 50.8701ZM86.8779 51.0137C86.4222 51.0137 86.1943 50.8724 86.1943 50.5898C86.1943 50.3574 86.3265 50.0658 86.5908 49.7148L87.0215 49.168L86.9531 49.1406C86.1875 50.084 85.4652 50.6764 84.7861 50.918C84.5993 50.9818 84.4375 51.0137 84.3008 51.0137C83.7402 51.0137 83.46 50.7152 83.46 50.1182C83.46 49.4163 83.7402 48.7464 84.3008 48.1084C85.1302 47.1423 85.9642 46.5703 86.8027 46.3926C87.0534 46.3424 87.2676 46.3174 87.4453 46.3174C87.623 46.3174 87.762 46.3311 87.8623 46.3584C87.9671 46.3812 88.0583 46.4154 88.1357 46.4609C88.2998 46.5658 88.3818 46.6956 88.3818 46.8506C88.3818 47.001 88.3545 47.1445 88.2998 47.2812L88.9697 46.4541C89.0928 46.4906 89.2067 46.5088 89.3115 46.5088C89.5804 46.5088 89.7741 46.4997 89.8926 46.4814L87.5889 49.2568C87.042 49.8949 86.7686 50.3438 86.7686 50.6035C86.7686 50.7493 86.8551 50.8223 87.0283 50.8223C87.2015 50.8223 87.3997 50.7699 87.623 50.665C87.8509 50.5602 88.0765 50.4258 88.2998 50.2617C88.5231 50.0977 88.7396 49.9154 88.9492 49.7148C89.1634 49.5143 89.3594 49.3184 89.5371 49.127C89.7194 48.9355 89.8789 48.7578 90.0156 48.5938L90.3438 48.2246L90.4873 48.3408L90.1387 48.7373C88.8262 50.2549 87.7393 51.0137 86.8779 51.0137ZM84.9844 48.5527C84.3418 49.332 84.0205 49.9701 84.0205 50.4668C84.0205 50.6947 84.123 50.8086 84.3281 50.8086C84.9935 50.8086 85.9528 50.0726 87.2061 48.6006L87.7803 47.9102C88.0537 47.4954 88.1904 47.1947 88.1904 47.0078C88.1904 46.6888 88.0309 46.5293 87.7119 46.5293C87.279 46.5293 86.6569 46.8984 85.8457 47.6367C85.5677 47.8919 85.2806 48.1973 84.9844 48.5527ZM96.0381 40.0967C96.3389 40.1468 96.6533 40.1468 96.9814 40.0967L91.3555 47.9238C90.2891 49.4733 89.6214 50.4554 89.3525 50.8701C89.2295 50.8473 89.127 50.8359 89.0449 50.8359C88.9583 50.8359 88.8923 50.8382 88.8467 50.8428C88.8011 50.8473 88.7555 50.8542 88.71 50.8633C88.6598 50.8678 88.6143 50.8747 88.5732 50.8838C88.5322 50.8929 88.498 50.8997 88.4707 50.9043L96.0381 40.0967ZM92.5107 50.6104C92.5107 50.7516 92.6224 50.8223 92.8457 50.8223C93.069 50.8223 93.3083 50.7607 93.5635 50.6377C93.8187 50.5101 94.0693 50.3529 94.3154 50.166C94.5661 49.9792 94.8031 49.7764 95.0264 49.5576C95.2542 49.3343 95.457 49.127 95.6348 48.9355C95.9036 48.6439 96.1064 48.4046 96.2432 48.2178L96.3799 48.3408C96.3617 48.359 96.2933 48.4365 96.1748 48.5732C96.0609 48.71 95.9105 48.8786 95.7236 49.0791C95.5413 49.2751 95.3294 49.487 95.0879 49.7148C94.8509 49.9382 94.6003 50.1478 94.3359 50.3438C93.7298 50.7904 93.2035 51.0137 92.7568 51.0137C92.3011 51.0137 92.0732 50.7699 92.0732 50.2822C92.0732 49.8766 92.3512 49.4027 92.9072 48.8604C93.1305 48.6279 93.2422 48.4707 93.2422 48.3887C93.2422 48.2064 93.1077 48.0697 92.8389 47.9785C92.57 48.1289 92.333 48.2041 92.1279 48.2041C91.7861 48.2041 91.6152 48.1335 91.6152 47.9922C91.6152 47.9102 91.679 47.8372 91.8066 47.7734C91.9388 47.7096 92.0983 47.6777 92.2852 47.6777C92.4766 47.6777 92.6589 47.7028 92.832 47.7529C92.9779 47.68 93.0918 47.6003 93.1738 47.5137C93.3743 47.304 93.5589 47.0967 93.7275 46.8916C93.8962 46.6865 94.0579 46.5156 94.2129 46.3789C94.5638 46.069 94.917 45.9141 95.2725 45.9141C95.4912 45.9141 95.6667 45.971 95.7988 46.085C95.9355 46.1989 96.0016 46.3356 95.9971 46.4951C95.9925 46.6546 95.9424 46.7708 95.8467 46.8438C95.751 46.9167 95.6462 46.9531 95.5322 46.9531C95.4183 46.9531 95.318 46.9144 95.2314 46.8369C95.1494 46.7594 95.1107 46.6706 95.1152 46.5703C95.1289 46.3789 95.2223 46.2559 95.3955 46.2012C95.3271 46.1465 95.2383 46.1191 95.1289 46.1191C95.0241 46.1191 94.9193 46.1396 94.8145 46.1807C94.7142 46.2171 94.6048 46.2832 94.4863 46.3789C94.2448 46.5658 93.944 46.8893 93.584 47.3496C93.4154 47.541 93.2399 47.7051 93.0576 47.8418C93.4906 48.0423 93.707 48.3385 93.707 48.7305C93.707 49.0495 93.5612 49.3822 93.2695 49.7285C93.1465 49.8743 93.0143 50.0133 92.873 50.1455C92.6315 50.3643 92.5107 50.5192 92.5107 50.6104ZM98.834 50.4121C98.5469 50.5944 98.2347 50.7448 97.8975 50.8633C97.5648 50.9818 97.248 51.041 96.9473 51.041C96.6465 51.041 96.4163 51.0114 96.2568 50.9521C96.1019 50.8883 95.9743 50.8018 95.874 50.6924C95.4456 50.2275 95.4479 49.5417 95.8809 48.6348C96.0677 48.2337 96.3503 47.8691 96.7285 47.541C97.1068 47.2083 97.4395 46.96 97.7266 46.7959C98.2826 46.4769 98.8044 46.3174 99.292 46.3174C99.7751 46.3174 100.028 46.4678 100.051 46.7686C100.083 47.2562 99.4902 47.7871 98.2734 48.3613C97.8268 48.571 97.264 48.7874 96.585 49.0107C96.3161 49.4482 96.1816 49.806 96.1816 50.084C96.1816 50.3574 96.2523 50.5534 96.3936 50.6719C96.5394 50.7858 96.749 50.8428 97.0225 50.8428C97.3005 50.8428 97.599 50.7835 97.918 50.665C98.2415 50.5465 98.5423 50.3962 98.8203 50.2139C99.1029 50.0316 99.3581 49.8333 99.5859 49.6191C99.8138 49.4049 100.014 49.1999 100.188 49.0039C100.365 48.8079 100.509 48.6393 100.618 48.498C100.732 48.3522 100.81 48.2611 100.851 48.2246L100.994 48.3408C100.935 48.391 100.844 48.4935 100.721 48.6484C100.602 48.8034 100.45 48.9811 100.263 49.1816C100.08 49.3776 99.8685 49.585 99.627 49.8037C99.39 50.0225 99.1257 50.2253 98.834 50.4121ZM96.7422 48.7715C98.1185 48.2884 99.0049 47.8076 99.4014 47.3291C99.5335 47.1696 99.5996 47.0146 99.5996 46.8643C99.5996 46.609 99.4811 46.4814 99.2441 46.4814C98.8249 46.4814 98.3008 46.8483 97.6719 47.582C97.2344 48.0924 96.9245 48.4889 96.7422 48.7715ZM102.908 49.7422C102.963 49.7513 103.031 49.7559 103.113 49.7559C103.2 49.7559 103.302 49.724 103.421 49.6602C103.539 49.5964 103.66 49.5143 103.783 49.4141C103.911 49.3138 104.036 49.2044 104.159 49.0859C104.282 48.9629 104.394 48.8467 104.494 48.7373C104.599 48.6234 104.69 48.5208 104.768 48.4297L104.925 48.2246L105.075 48.3408C105.021 48.3955 104.95 48.4707 104.863 48.5664L104.576 48.8945C103.943 49.5781 103.441 49.9199 103.072 49.9199H102.956C102.92 49.9199 102.883 49.9154 102.847 49.9062C102.464 50.7402 101.65 51.1572 100.406 51.1572C99.8639 51.1572 99.4697 51.0273 99.2236 50.7676C99.1188 50.6536 99.0664 50.5078 99.0664 50.3301C99.0664 50.1523 99.1097 50.002 99.1963 49.8789C99.2783 49.7513 99.3763 49.6465 99.4902 49.5645C99.7227 49.3958 99.9323 49.3115 100.119 49.3115C100.301 49.3115 100.393 49.3981 100.393 49.5713C100.379 49.6898 100.279 49.7786 100.092 49.8379C100.033 49.8561 99.9756 49.8652 99.9209 49.8652C99.8617 49.8652 99.807 49.847 99.7568 49.8105C99.7021 49.7695 99.6589 49.7399 99.627 49.7217C99.5996 49.749 99.5654 49.7809 99.5244 49.8174C99.4788 49.8538 99.4355 49.8971 99.3945 49.9473C99.2943 50.0703 99.2441 50.1979 99.2441 50.3301C99.2441 50.4577 99.2874 50.5602 99.374 50.6377C99.4606 50.7152 99.5632 50.7744 99.6816 50.8154C99.8594 50.8792 100.046 50.9111 100.242 50.9111C100.434 50.9111 100.632 50.8701 100.837 50.7881C101.047 50.7061 101.252 50.5693 101.452 50.3779C102.004 49.8538 102.302 49.0768 102.348 48.0469C102.375 47.3542 102.459 46.8118 102.601 46.4199C102.605 46.4062 102.607 46.3857 102.607 46.3584L100.994 48.3408C100.903 48.4502 100.837 48.5208 100.796 48.5527C100.75 48.5846 100.728 48.6006 100.728 48.6006C100.673 48.6051 100.636 48.5915 100.618 48.5596C100.609 48.5368 100.63 48.4935 100.68 48.4297C101.855 47.026 102.516 46.2285 102.662 46.0371C102.735 45.6816 102.854 45.5039 103.018 45.5039C103.095 45.5039 103.159 45.5244 103.209 45.5654C103.264 45.6064 103.291 45.6589 103.291 45.7227C103.286 45.8092 103.216 45.9323 103.079 46.0918C102.947 46.2467 102.865 46.347 102.833 46.3926C102.806 46.4336 102.787 46.4701 102.778 46.502C102.769 46.5293 102.765 46.5566 102.765 46.584V46.666C102.76 46.7891 102.771 46.9349 102.799 47.1035L102.97 48.2383C103.07 48.8581 103.049 49.3594 102.908 49.7422ZM107.386 51.0137C106.857 51.0137 106.593 50.7881 106.593 50.3369C106.593 49.6533 107.342 48.7624 108.842 47.6641C109.361 47.2858 109.648 47.0124 109.703 46.8438C109.717 46.7936 109.724 46.7458 109.724 46.7002C109.724 46.6501 109.699 46.6022 109.648 46.5566C109.603 46.5111 109.503 46.4883 109.348 46.4883C108.632 46.4883 107.522 47.1878 106.019 48.5869C105.317 49.2614 104.829 49.749 104.556 50.0498L103.831 50.8701C103.64 51.1208 103.428 51.4124 103.195 51.7451L101.801 53.8301L100.762 55.4707C100.643 55.653 100.575 55.7601 100.557 55.792C100.424 55.8285 100.279 55.8467 100.119 55.8467C99.9551 55.8467 99.8525 55.8444 99.8115 55.8398C99.766 55.8398 99.7181 55.8376 99.668 55.833C99.5814 55.8239 99.4971 55.8079 99.415 55.7852L102.908 51.041L105.123 47.9238L107.816 44.3213C108.062 44.3486 108.247 44.3623 108.37 44.3623C108.598 44.3623 108.757 44.3464 108.849 44.3145L106.647 47.0078L105.021 49.1816L105.068 49.2363C106.486 47.8737 107.532 47.0169 108.206 46.666C108.552 46.4837 108.81 46.3812 108.979 46.3584C109.152 46.3311 109.307 46.3174 109.443 46.3174C109.876 46.3174 110.093 46.5065 110.093 46.8848C110.093 47.6322 109.407 48.4867 108.035 49.4482C107.42 49.8903 107.069 50.1934 106.982 50.3574C106.955 50.4121 106.941 50.4645 106.941 50.5146C106.941 50.7197 107.103 50.8223 107.427 50.8223C108.211 50.8223 109.211 50.0977 110.428 48.6484L110.79 48.2246L110.94 48.3408L110.585 48.751C109.313 50.2594 108.247 51.0137 107.386 51.0137ZM113.381 50.4121C113.094 50.5944 112.782 50.7448 112.444 50.8633C112.112 50.9818 111.795 51.041 111.494 51.041C111.193 51.041 110.963 51.0114 110.804 50.9521C110.649 50.8883 110.521 50.8018 110.421 50.6924C109.993 50.2275 109.995 49.5417 110.428 48.6348C110.615 48.2337 110.897 47.8691 111.275 47.541C111.654 47.2083 111.986 46.96 112.273 46.7959C112.829 46.4769 113.351 46.3174 113.839 46.3174C114.322 46.3174 114.575 46.4678 114.598 46.7686C114.63 47.2562 114.037 47.7871 112.82 48.3613C112.374 48.571 111.811 48.7874 111.132 49.0107C110.863 49.4482 110.729 49.806 110.729 50.084C110.729 50.3574 110.799 50.5534 110.94 50.6719C111.086 50.7858 111.296 50.8428 111.569 50.8428C111.847 50.8428 112.146 50.7835 112.465 50.665C112.788 50.5465 113.089 50.3962 113.367 50.2139C113.65 50.0316 113.905 49.8333 114.133 49.6191C114.361 49.4049 114.561 49.1999 114.734 49.0039C114.912 48.8079 115.056 48.6393 115.165 48.498C115.279 48.3522 115.356 48.2611 115.397 48.2246L115.541 48.3408C115.482 48.391 115.391 48.4935 115.268 48.6484C115.149 48.8034 114.996 48.9811 114.81 49.1816C114.627 49.3776 114.415 49.585 114.174 49.8037C113.937 50.0225 113.673 50.2253 113.381 50.4121ZM111.289 48.7715C112.665 48.2884 113.552 47.8076 113.948 47.3291C114.08 47.1696 114.146 47.0146 114.146 46.8643C114.146 46.609 114.028 46.4814 113.791 46.4814C113.372 46.4814 112.848 46.8483 112.219 47.582C111.781 48.0924 111.471 48.4889 111.289 48.7715ZM118.077 51.0137C117.621 51.0137 117.394 50.8724 117.394 50.5898C117.394 50.3574 117.526 50.0658 117.79 49.7148L118.221 49.168L118.152 49.1406C117.387 50.084 116.664 50.6764 115.985 50.918C115.799 50.9818 115.637 51.0137 115.5 51.0137C114.939 51.0137 114.659 50.7152 114.659 50.1182C114.659 49.4163 114.939 48.7464 115.5 48.1084C116.329 47.1423 117.163 46.5703 118.002 46.3926C118.253 46.3424 118.467 46.3174 118.645 46.3174C118.822 46.3174 118.961 46.3311 119.062 46.3584C119.166 46.3812 119.257 46.4154 119.335 46.4609C119.499 46.5658 119.581 46.6956 119.581 46.8506C119.581 47.001 119.554 47.1445 119.499 47.2812L120.169 46.4541C120.292 46.4906 120.406 46.5088 120.511 46.5088C120.78 46.5088 120.973 46.4997 121.092 46.4814L118.788 49.2568C118.241 49.8949 117.968 50.3438 117.968 50.6035C117.968 50.7493 118.054 50.8223 118.228 50.8223C118.401 50.8223 118.599 50.7699 118.822 50.665C119.05 50.5602 119.276 50.4258 119.499 50.2617C119.722 50.0977 119.939 49.9154 120.148 49.7148C120.363 49.5143 120.559 49.3184 120.736 49.127C120.919 48.9355 121.078 48.7578 121.215 48.5938L121.543 48.2246L121.687 48.3408L121.338 48.7373C120.025 50.2549 118.938 51.0137 118.077 51.0137ZM116.184 48.5527C115.541 49.332 115.22 49.9701 115.22 50.4668C115.22 50.6947 115.322 50.8086 115.527 50.8086C116.193 50.8086 117.152 50.0726 118.405 48.6006L118.979 47.9102C119.253 47.4954 119.39 47.1947 119.39 47.0078C119.39 46.6888 119.23 46.5293 118.911 46.5293C118.478 46.5293 117.856 46.8984 117.045 47.6367C116.767 47.8919 116.48 48.1973 116.184 48.5527ZM122.685 50.4668C122.685 50.6764 122.773 50.7812 122.951 50.7812C123.133 50.7812 123.332 50.7266 123.546 50.6172C123.765 50.5078 123.986 50.3688 124.209 50.2002C124.437 50.0316 124.66 49.8447 124.879 49.6396L125.474 49.0449C125.656 48.8581 125.813 48.6895 125.945 48.5391L126.226 48.2246L126.362 48.3408C126.276 48.4183 126.16 48.5391 126.014 48.7031L125.521 49.25C124.41 50.4258 123.452 51.0137 122.65 51.0137C122.391 51.0137 122.181 50.9499 122.021 50.8223C121.867 50.6947 121.789 50.5238 121.789 50.3096C121.789 49.6305 122.778 48.6279 124.756 47.3018C123.79 47.1423 123.122 46.9805 122.753 46.8164C122.452 47.4362 121.99 48.0674 121.365 48.71C121.219 48.8604 121.131 48.9424 121.099 48.9561C121.062 48.9697 121.039 48.9811 121.03 48.9902C121.021 48.9948 121.014 48.9811 121.01 48.9492C121.005 48.9173 121.005 48.8945 121.01 48.8809C121.014 48.8626 121.023 48.8444 121.037 48.8262C121.251 48.5846 121.45 48.3522 121.632 48.1289C122.056 47.6003 122.368 47.1309 122.568 46.7207C122.404 46.6159 122.311 46.5042 122.288 46.3857C122.265 46.2673 122.265 46.1579 122.288 46.0576C122.315 45.9528 122.356 45.8594 122.411 45.7773C122.53 45.5996 122.666 45.5107 122.821 45.5107C123.108 45.5107 123.252 45.6156 123.252 45.8252C123.252 45.93 123.231 46.0189 123.19 46.0918L123.067 46.3037C122.985 46.4085 122.944 46.5293 122.944 46.666C122.944 46.748 123.118 46.8255 123.464 46.8984C123.815 46.9714 124.063 47.0215 124.209 47.0488C124.528 47.1081 124.781 47.1423 124.968 47.1514C125.095 47.1559 125.159 47.1901 125.159 47.2539C125.159 47.2949 125.084 47.3747 124.934 47.4932C124.788 47.6117 124.626 47.7552 124.448 47.9238C124.271 48.0924 124.097 48.2702 123.929 48.457C123.76 48.6393 123.601 48.8262 123.45 49.0176C123.3 49.209 123.168 49.3936 123.054 49.5713C122.808 49.9541 122.685 50.2526 122.685 50.4668ZM128.816 50.4121C128.529 50.5944 128.217 50.7448 127.88 50.8633C127.547 50.9818 127.23 51.041 126.93 51.041C126.629 51.041 126.399 51.0114 126.239 50.9521C126.084 50.8883 125.957 50.8018 125.856 50.6924C125.428 50.2275 125.43 49.5417 125.863 48.6348C126.05 48.2337 126.333 47.8691 126.711 47.541C127.089 47.2083 127.422 46.96 127.709 46.7959C128.265 46.4769 128.787 46.3174 129.274 46.3174C129.757 46.3174 130.01 46.4678 130.033 46.7686C130.065 47.2562 129.473 47.7871 128.256 48.3613C127.809 48.571 127.246 48.7874 126.567 49.0107C126.299 49.4482 126.164 49.806 126.164 50.084C126.164 50.3574 126.235 50.5534 126.376 50.6719C126.522 50.7858 126.731 50.8428 127.005 50.8428C127.283 50.8428 127.581 50.7835 127.9 50.665C128.224 50.5465 128.525 50.3962 128.803 50.2139C129.085 50.0316 129.34 49.8333 129.568 49.6191C129.796 49.4049 129.997 49.1999 130.17 49.0039C130.348 48.8079 130.491 48.6393 130.601 48.498C130.715 48.3522 130.792 48.2611 130.833 48.2246L130.977 48.3408C130.917 48.391 130.826 48.4935 130.703 48.6484C130.585 48.8034 130.432 48.9811 130.245 49.1816C130.063 49.3776 129.851 49.585 129.609 49.8037C129.372 50.0225 129.108 50.2253 128.816 50.4121ZM126.725 48.7715C128.101 48.2884 128.987 47.8076 129.384 47.3291C129.516 47.1696 129.582 47.0146 129.582 46.8643C129.582 46.609 129.464 46.4814 129.227 46.4814C128.807 46.4814 128.283 46.8483 127.654 47.582C127.217 48.0924 126.907 48.4889 126.725 48.7715Z" fill="black"/>
<defs>
<clipPath id="clip0">
<rect width="70" height="70" fill="white" transform="matrix(-1 0 0 1 70 0)"/>
</clipPath>
</defs>
</svg>
